<mxfile host="app.diagrams.net" modified="2023-10-13T12:33:19.260Z" agent="Mozilla/5.0 (Windows NT 10.0; Win64; x64) AppleWebKit/537.36 (KHTML, like Gecko) Chrome/117.0.0.0 Safari/537.36 Edg/117.0.2045.60" version="21.8.2" etag="AmN8fM288DBSIFTzonbe" type="github">
  <diagram name="Page-1" id="4CGfCqFsKuZjEB0w1kbS">
    <mxGraphModel>
      <root>
        <mxCell id="0" />
        <mxCell id="1" parent="0" />
      </root>
    </mxGraphModel>
  </diagram>
</mxfile>
